<svg width="19" height="19" xmlns="http://www.w3.org/2000/svg" xmlns:xlink="http://www.w3.org/1999/xlink" overflow="hidden"><defs><clipPath id="clip0"><rect x="985" y="501" width="19" height="19"/></clipPath></defs><g clip-path="url(#clip0)" transform="translate(-985 -501)"><path d="M997.942 509.258 998.366 509.258C998.67 509.249 999.036 509.389 999.287 509.644 999.539 509.898 999.677 510.268 999.669 510.576 999.677 510.883 999.539 511.253 999.287 511.508 999.036 511.763 998.67 511.902 998.366 511.894L995.833 511.895 995.833 513.628C995.833 514.062 995.817 514.277 995.778 514.466 995.745 514.639 995.686 514.805 995.602 514.959 995.53 515.091 995.435 515.21 995.321 515.308 995.199 515.414 995.057 515.494 994.904 515.544 994.715 515.607 994.515 515.627 994.318 515.6 994.114 515.568 993.917 515.473 993.735 515.323 993.554 515.173 993.388 514.967 993.268 514.791 993.148 514.615 993.074 514.467 993.022 514.234 992.964 513.95 992.941 513.66 992.953 513.37 992.966 513.058 993.022 512.75 993.121 512.414 993.22 512.077 993.363 511.711 993.743 511.001 994.497 510.994 995.278 510.9 995.972 510.614 996.703 510.313 997.339 509.797 997.942 509.258ZM997.001 506.942C995.993 506.955 994.992 507.305 994.215 507.968 993.437 508.632 992.884 509.607 992.986 510.659 992.869 510.494 992.653 510.308 992.481 510.177 992.308 510.045 992.179 509.967 992.017 509.927 991.856 509.886 991.663 509.882 991.495 509.888 991.316 509.888 991.139 509.919 990.971 509.979 990.755 510.053 990.467 510.188 990.079 510.595 990.508 510.755 990.814 510.925 991.11 511.093 991.406 511.261 991.694 511.426 991.918 511.504 992.143 511.582 992.305 511.573 992.452 511.519 992.599 511.465 992.729 511.366 992.945 511.088 992.713 510.899 992.466 510.728 992.207 510.578 992.508 510.685 992.802 510.812 993.086 510.959 993.075 510.873 993.052 510.788 993.016 510.709 993.598 509.741 994.215 509.174 994.703 508.804 993.745 509.877 993.35 510.622 993.087 511.171 992.824 511.719 992.693 512.071 992.563 512.497 992.433 512.923 992.304 513.424 992.282 513.874 992.259 514.324 992.341 514.723 992.437 515.039 992.532 515.354 992.64 515.587 992.822 515.798 993.004 516.009 993.26 516.198 993.526 516.327 993.765 516.443 994.02 516.52 994.282 516.558 994.475 516.588 994.673 516.579 994.863 516.532 995.097 516.48 995.323 516.394 995.535 516.279 995.753 516.155 995.939 515.991 996.113 515.795 996.287 515.598 996.447 515.368 996.544 515.145 996.64 514.923 996.671 514.707 996.695 514.545 996.719 514.383 996.735 514.274 996.735 513.725L996.735 512.807 998.367 512.806C998.851 512.816 999.414 512.617 999.828 512.246 1000.24 511.875 1000.51 511.333 1000.56 510.846 1000.62 510.362 1000.5 509.772 1000.18 509.311 999.869 508.85 999.37 508.519 998.898 508.411 999.213 508.151 999.543 507.913 999.913 507.724 999.022 507.253 998.008 506.928 997.001 506.942ZM996.696 506.5 996.696 506.5 996.689 506.501 996.682 506.501ZM994.612 504.432C994.546 504.428 994.481 504.429 994.418 504.433 993.913 504.438 993.319 504.685 992.911 505.113 992.503 505.541 992.281 506.151 992.293 506.662L992.293 508.347 990.628 508.347C990.114 508.333 989.495 508.569 989.069 509 988.643 509.431 988.41 510.055 988.423 510.577 988.41 511.097 988.643 511.723 989.069 512.154 989.496 512.584 990.114 512.821 990.628 512.807L991.965 512.807 991.967 512.799 992.068 512.435 992.174 512.097 992.244 511.894 990.628 511.894C990.324 511.903 989.959 511.763 989.707 511.508 989.455 511.253 989.317 510.884 989.325 510.576 989.317 510.269 989.456 509.9 989.707 509.644 989.958 509.389 990.324 509.25 990.628 509.258L993.162 509.258 993.195 506.661C993.187 506.354 993.324 505.985 993.574 505.731 993.824 505.477 994.189 505.336 994.492 505.343 994.795 505.333 995.16 505.47 995.413 505.722 995.665 505.975 995.805 506.342 995.8 506.649L996.17 506.567 996.689 506.501 996.696 506.501 996.696 506.5 996.696 506.5 996.696 506.5 996.676 506.306C996.603 505.845 996.353 505.349 995.97 505.001 995.587 504.654 995.072 504.455 994.612 504.432ZM987.221 502 1001.78 502C1002.45 502 1003 502.553 1003 503.236L1003 517.764C1003 518.447 1002.45 519 1001.78 519L987.221 519C986.547 519 986 518.447 986 517.764L986 503.236C986 502.553 986.547 502 987.221 502Z" fill-rule="evenodd"/></g></svg>